<?xml version="1.0" encoding="utf-8"?>
<!-- Generator: Adobe Illustrator 14.0.0, SVG Export Plug-In . SVG Version: 6.00 Build 43363)  -->
<!DOCTYPE svg PUBLIC "-//W3C//DTD SVG 1.1//EN" "http://www.w3.org/Graphics/SVG/1.1/DTD/svg11.dtd">
<svg version="1.1" id="Layer_1" xmlns="http://www.w3.org/2000/svg" xmlns:xlink="http://www.w3.org/1999/xlink" x="0px" y="0px"
	 width="271px" height="257.25px" viewBox="0 0 271 257.25" enable-background="new 0 0 271 257.25" xml:space="preserve">
<path fill-rule="evenodd" clip-rule="evenodd" fill="#669933" d="M221,156.482c-2.127,3.93-10.306-0.222-17.653,0
	c-15.901-43.17-31.851-81.975-47.396-125.52c5.405-4.986,9.703-12.703,14.066-11.463C182.334,23,228.515,142.596,221,156.482z"/>
<path fill-rule="evenodd" clip-rule="evenodd" fill="#669933" d="M149.021,38.498c17.167,36.493,30.521,76.8,43.994,116.985
	c-35.591-14.51-77.052-3.479-114.985,1c-6.012-17.328-13.521-35.721-19.993-54.232c5.342-8.309,19.132-11.551,26.993-14.759
	C109.482,77.514,133.486,58.348,149.021,38.498z"/>
<path fill-rule="evenodd" clip-rule="evenodd" fill="#669933" d="M32.725,154.755c-3.536-4.015-6.067-12.551-6.657-20.196
	c-2.147-16.91,20.069-29.036,28.18-30.257c5.738,17.592,12.612,34.516,18.647,52.894C51.875,166.23,42.907,167.012,32.725,154.755z"
	/>
<path fill-rule="evenodd" clip-rule="evenodd" fill="#669933" d="M165.019,189.479c-29.543,25.419-55.52-12.44-72.991-29.996
	c10.718-2.613,22.412-4.251,31.996-7.999C139.718,162.119,153.462,174.705,165.019,189.479z"/>
<path fill-rule="evenodd" clip-rule="evenodd" fill="#669933" d="M201.347,54.429c-1.201,1.201-3.148,1.201-4.35,0l0,0
	c-1.201-1.202-1.201-3.149,0-4.35l15.804-15.804c1.201-1.202,3.148-1.202,4.351,0l0,0c1.201,1.201,1.201,3.148-0.001,4.35
	L201.347,54.429z"/>
<path fill-rule="evenodd" clip-rule="evenodd" fill="#669933" d="M211.098,74.762c-1.454,0.878-3.345,0.411-4.224-1.042l0,0
	c-0.877-1.455-0.41-3.346,1.044-4.224l19.132-11.554c1.454-0.878,3.345-0.412,4.224,1.043l0,0c0.878,1.454,0.411,3.344-1.044,4.222
	L211.098,74.762z"/>
<path fill-rule="evenodd" clip-rule="evenodd" fill="#669933" d="M214.937,100.56c-1.699,0.02-3.092-1.34-3.113-3.039l0,0
	c-0.02-1.699,1.342-3.092,3.04-3.112l22.349-0.265c1.699-0.02,3.092,1.34,3.112,3.041l0,0c0.02,1.698-1.34,3.091-3.04,3.111
	L214.937,100.56z"/>
<path fill-rule="evenodd" clip-rule="evenodd" fill="#669933" d="M219.503,124.023c-1.661-0.355-2.72-1.99-2.366-3.651l0,0
	c0.356-1.661,1.991-2.72,3.652-2.365l21.856,4.673c1.661,0.355,2.72,1.99,2.364,3.652l0,0c-0.355,1.661-1.989,2.72-3.651,2.363
	L219.503,124.023z"/>
<path fill-rule="evenodd" clip-rule="evenodd" d="M-8.916,115.568c0,0.026-0.021,0.047-0.047,0.047l0,0
	c-0.026,0-0.047-0.021-0.047-0.047v-0.472c0-0.026,0.021-0.047,0.047-0.047l0,0c0.026,0,0.047,0.021,0.047,0.047V115.568z"/>
<polygon fill-rule="evenodd" clip-rule="evenodd" points="-9.576,115.615 -9.576,115.615 -8.963,115.615 -8.963,115.615 
	-8.963,115.615 -8.963,115.615 -9.576,115.615 -9.576,115.615 "/>
<ellipse fill-rule="evenodd" clip-rule="evenodd" fill="#161A36" cx="128.686" cy="234.5" rx="82.814" ry="10"/>
</svg>
