<svg width="271" height="257.25" viewBox="0 0 271 257.25" xmlns="http://www.w3.org/2000/svg" xmlns:xlink="http://www.w3.org/1999/xlink" id="Layer_1" overflow="hidden"><path d="M221 156.482C218.873 160.412 210.694 156.26 203.347 156.482 187.446 113.312 171.496 74.507 155.951 30.962 161.356 25.976 165.654 18.259 170.017 19.499 182.334 23 228.515 142.596 221 156.482Z" fill-rule="evenodd" clip-rule="evenodd"/><path d="M149.021 38.498C166.188 74.991 179.542 115.298 193.015 155.483 157.424 140.973 115.963 152.004 78.03 156.483 72.018 139.155 64.509 120.762 58.037 102.251 63.379 93.942 77.169 90.7 85.03 87.492 109.482 77.514 133.486 58.348 149.021 38.498Z" fill-rule="evenodd" clip-rule="evenodd"/><path d="M32.725 154.755C29.189 150.74 26.658 142.204 26.068 134.559 23.921 117.649 46.137 105.523 54.248 104.302 59.986 121.894 66.86 138.818 72.895 157.196 51.875 166.23 42.907 167.012 32.725 154.755Z" fill-rule="evenodd" clip-rule="evenodd"/><path d="M165.019 189.479C135.476 214.898 109.499 177.039 92.028 159.483 102.746 156.87 114.44 155.232 124.024 151.484 139.718 162.119 153.462 174.705 165.019 189.479Z" fill-rule="evenodd" clip-rule="evenodd"/><path d="M201.347 54.429C200.146 55.63 198.199 55.63 196.997 54.429L196.997 54.429C195.796 53.227 195.796 51.28 196.997 50.079L212.801 34.275C214.002 33.073 215.949 33.073 217.152 34.275L217.152 34.275C218.353 35.476 218.353 37.423 217.151 38.625L201.347 54.429Z" fill-rule="evenodd" clip-rule="evenodd"/><path d="M211.098 74.762C209.644 75.64 207.753 75.173 206.874 73.72L206.874 73.72C205.997 72.265 206.464 70.374 207.918 69.496L227.05 57.942C228.504 57.064 230.395 57.53 231.274 58.985L231.274 58.985C232.152 60.439 231.685 62.329 230.23 63.207L211.098 74.762Z" fill-rule="evenodd" clip-rule="evenodd"/><path d="M214.937 100.56C213.238 100.58 211.845 99.22 211.824 97.521L211.824 97.521C211.804 95.822 213.166 94.429 214.864 94.409L237.213 94.144C238.912 94.124 240.305 95.484 240.325 97.185L240.325 97.185C240.345 98.883 238.985 100.276 237.285 100.296L214.937 100.56Z" fill-rule="evenodd" clip-rule="evenodd"/><path d="M219.503 124.023C217.842 123.668 216.783 122.033 217.137 120.372L217.137 120.372C217.493 118.711 219.128 117.652 220.789 118.007L242.645 122.68C244.306 123.035 245.365 124.67 245.009 126.332L245.009 126.332C244.654 127.993 243.02 129.052 241.358 128.695L219.503 124.023Z" fill-rule="evenodd" clip-rule="evenodd"/><path d="M-8.916 115.568C-8.916 115.594-8.937 115.615-8.963 115.615L-8.963 115.615C-8.989 115.615-9.01 115.594-9.01 115.568L-9.01 115.096C-9.01 115.07-8.989 115.049-8.963 115.049L-8.963 115.049C-8.937 115.049-8.916 115.07-8.916 115.096L-8.916 115.568Z" fill-rule="evenodd" clip-rule="evenodd"/><path d="M-9.576 115.615-9.576 115.615-8.963 115.615-8.963 115.615-8.963 115.615-8.963 115.615-9.576 115.615-9.576 115.615Z" fill-rule="evenodd" clip-rule="evenodd"/><ellipse cx="128.686" cy="234.5" rx="82.814" ry="10" fill-rule="evenodd" clip-rule="evenodd"/></svg>